<?xml version="1.0" standalone="no"?><svg xmlns:xlink="http://www.w3.org/1999/xlink" xmlns="http://www.w3.org/2000/svg" viewBox="0 0 1000 250.00000000000003" preserveAspectRatio="xMaxYMax slice"><g transform="scale(0.6622516556291391)"><rect x="0" y="0" width="1510" height="377.5" fill="#ffffff"/><polygon points="755,37.75 755,75.5 717.25,75.5" fill="#7fa5ab"/><rect x="943.75" y="37.75" width="37.75" height="37.75" fill="#ffffff"/><path d="M 962.63 56.629999999999995 A 18.88 18.88 0 0 1  981.51 37.75 L 962.63 56.629999999999995 A 18.88 18.88 0 0 0 981.51 37.75" fill="#edf8fc"/><polygon points="943.75,56.63 962.63,75.51 943.75,75.51" fill="#66c4e2"/><polygon points="302,75.5 339.75,113.25 302,113.25" fill="#b3e2f1"/><path d="M 415.25 75.5 A 37.75 37.75 0 0 1  453 113.25 L 415.25 75.5 A 37.75 37.75 0 0 0 453 113.25" fill="#f7f9fa"/><rect x="453" y="75.5" width="37.75" height="37.75" fill="#ffffff"/><g transform="translate(453,75.5) scale(0.944) rotate(0)"><path d="M5 0H10L5 5L0 10V5L5 0Z" fill="#b0e1f0"/><path d="M20 15V20H15L20 15Z" fill="#b0e1f0"/><path d="M20 5V10L15 15L10 20H5L20 5Z" fill="#b0e1f0"/><path d="M15 0H20L5 15.0002L0 20.0002V15.0002L15 0Z" fill="#b0e1f0"/></g><path d="M 471.88 113.25999999999999 A 18.88 18.88 0 0 1  490.76 94.38 L 471.88 113.25999999999999 A 18.88 18.88 0 0 0 490.76 94.38" fill="#029ecf"/><rect x="604" y="75.5" width="37.75" height="37.75" fill="#ffffff"/><path d="M 622.88 94.38 A 18.88 18.88 0 0 1  641.76 113.25999999999999 L 622.88 94.38 A 18.88 18.88 0 0 0 641.76 113.25999999999999" fill="#29add7"/><path d="M 641.75 113.25 A 37.75 37.75 0 0 1  679.5 75.5 L 641.75 113.25 A 37.75 37.75 0 0 0 679.5 75.5" fill="#175c66"/><path d="M 679.5 113.25 A 37.75 37.75 0 0 1  717.25 75.5 L 679.5 113.25 A 37.75 37.75 0 0 0 717.25 75.5" fill="#d7e2e4"/><g transform="translate(717.25,75.5) scale(1.8875) rotate(0)"><path d="M5 0H10L5 5L0 10V5L5 0Z" fill="#fdfefe"/><path d="M20 15V20H15L20 15Z" fill="#fdfefe"/><path d="M20 5V10L15 15L10 20H5L20 5Z" fill="#fdfefe"/><path d="M15 0H20L5 15.0002L0 20.0002V15.0002L15 0Z" fill="#fdfefe"/></g><g transform="translate(792.75,75.5) scale(1.8875) rotate(0)"><path d="M5 0H10L5 5L0 10V5L5 0Z" fill="#6e989f"/><path d="M20 15V20H15L20 15Z" fill="#6e989f"/><path d="M20 5V10L15 15L10 20H5L20 5Z" fill="#6e989f"/><path d="M15 0H20L5 15.0002L0 20.0002V15.0002L15 0Z" fill="#6e989f"/></g><g transform="translate(830.5,75.5) scale(1.8875) rotate(0)"><path d="M5 0H10L5 5L0 10V5L5 0Z" fill="#78a0a6"/><path d="M20 15V20H15L20 15Z" fill="#78a0a6"/><path d="M20 5V10L15 15L10 20H5L20 5Z" fill="#78a0a6"/><path d="M15 0H20L5 15.0002L0 20.0002V15.0002L15 0Z" fill="#78a0a6"/></g><rect x="906" y="75.5" width="37.75" height="37.75" fill="#ffffff"/><polygon points="924.88,75.5 924.88,94.38 906,94.38" fill="#78a0a6"/><polygon points="924.88,75.5 943.76,75.5 943.76,94.38" fill="#91d5ea"/><g transform="translate(906,94.38) scale(0.944) rotate(0)"><path d="M5 0H10L5 5L0 10V5L5 0Z" fill="#749da3"/><path d="M20 15V20H15L20 15Z" fill="#749da3"/><path d="M20 5V10L15 15L10 20H5L20 5Z" fill="#749da3"/><path d="M15 0H20L5 15.0002L0 20.0002V15.0002L15 0Z" fill="#749da3"/></g><path d="M 1434.5 113.25 A 37.75 37.75 0 0 1  1472.25 75.5 L 1434.5 113.25 A 37.75 37.75 0 0 0 1472.25 75.5" fill="#1e606b"/><rect x="453" y="113.25" width="37.75" height="37.75" fill="#ffffff"/><g transform="translate(453,113.25) scale(0.944) rotate(0)"><path d="M5 0H10L5 5L0 10V5L5 0Z" fill="#81cfe7"/><path d="M20 15V20H15L20 15Z" fill="#81cfe7"/><path d="M20 5V10L15 15L10 20H5L20 5Z" fill="#81cfe7"/><path d="M15 0H20L5 15.0002L0 20.0002V15.0002L15 0Z" fill="#81cfe7"/></g><g transform="translate(453,132.13) scale(0.944) rotate(0)"><path d="M5 0H10L5 5L0 10V5L5 0Z" fill="#175b66"/><path d="M20 15V20H15L20 15Z" fill="#175b66"/><path d="M20 5V10L15 15L10 20H5L20 5Z" fill="#175b66"/><path d="M15 0H20L5 15.0002L0 20.0002V15.0002L15 0Z" fill="#175b66"/></g><path d="M 471.88 132.13 A 18.88 18.88 0 0 1  490.76 151.01 L 471.88 132.13 A 18.88 18.88 0 0 0 490.76 151.01" fill="#709aa1"/><rect x="490.75" y="113.25" width="37.75" height="37.75" fill="#ffffff"/><g transform="translate(509.63,132.13) scale(0.944) rotate(0)"><path d="M5 0H10L5 5L0 10V5L5 0Z" fill="#145964"/><path d="M20 15V20H15L20 15Z" fill="#145964"/><path d="M20 5V10L15 15L10 20H5L20 5Z" fill="#145964"/><path d="M15 0H20L5 15.0002L0 20.0002V15.0002L15 0Z" fill="#145964"/></g><path d="M 566.25 113.25 A 37.75 37.75 0 0 1  604 151 L 566.25 113.25 A 37.75 37.75 0 0 0 604 151" fill="#d4eef7"/><path d="M 604 151 A 37.75 37.75 0 0 1  641.75 113.25 L 604 151 A 37.75 37.75 0 0 0 641.75 113.25" fill="#acdfef"/><path d="M 641.75 151 A 37.75 37.75 0 0 1  679.5 113.25 L 641.75 151 A 37.75 37.75 0 0 0 679.5 113.25" fill="#27acd6"/><rect x="717.25" y="113.25" width="37.75" height="37.75" fill="#ffffff"/><path d="M 717.25 113.25 A 18.88 18.88 0 0 1  736.13 132.13 L 717.25 113.25 A 18.88 18.88 0 0 0 736.13 132.13" fill="#24646e"/><path d="M 717.25 132.13 A 18.88 18.88 0 0 1  736.13 151.01 L 717.25 132.13 A 18.88 18.88 0 0 0 736.13 151.01" fill="#b4e2f1"/><polygon points="736.13,132.13 755.01,132.13 755.01,151.01" fill="#c5d6d9"/><rect x="755" y="113.25" width="37.75" height="37.75" fill="#ffffff"/><g transform="translate(755,113.25) scale(0.944) rotate(0)"><path d="M5 0H10L5 5L0 10V5L5 0Z" fill="#059fd0"/><path d="M20 15V20H15L20 15Z" fill="#059fd0"/><path d="M20 5V10L15 15L10 20H5L20 5Z" fill="#059fd0"/><path d="M15 0H20L5 15.0002L0 20.0002V15.0002L15 0Z" fill="#059fd0"/></g><path d="M 773.88 113.25 A 18.88 18.88 0 0 1  792.76 132.13 L 773.88 113.25 A 18.88 18.88 0 0 0 792.76 132.13" fill="#81cfe7"/><g transform="translate(755,132.13) scale(0.944) rotate(0)"><path d="M5 0H10L5 5L0 10V5L5 0Z" fill="#21636d"/><path d="M20 15V20H15L20 15Z" fill="#21636d"/><path d="M20 5V10L15 15L10 20H5L20 5Z" fill="#21636d"/><path d="M15 0H20L5 15.0002L0 20.0002V15.0002L15 0Z" fill="#21636d"/></g><polygon points="773.88,132.13 792.76,132.13 792.76,151.01" fill="#26acd6"/><path d="M 792.75 113.25 A 37.75 37.75 0 0 1  830.5 151 L 792.75 113.25 A 37.75 37.75 0 0 0 830.5 151" fill="#77cbe5"/><path d="M 868.25 113.25 A 37.75 37.75 0 0 1  906 151 L 868.25 113.25 A 37.75 37.75 0 0 0 906 151" fill="#28acd7"/><g transform="translate(906,113.25) scale(1.8875) rotate(0)"><path d="M5 0H10L5 5L0 10V5L5 0Z" fill="#dbe6e8"/><path d="M20 15V20H15L20 15Z" fill="#dbe6e8"/><path d="M20 5V10L15 15L10 20H5L20 5Z" fill="#dbe6e8"/><path d="M15 0H20L5 15.0002L0 20.0002V15.0002L15 0Z" fill="#dbe6e8"/></g><polygon points="943.75,113.25 981.5,113.25 943.75,151" fill="#709aa1"/><rect x="1019.25" y="113.25" width="37.75" height="37.75" fill="#ffffff"/><path d="M 1019.25 113.25 A 18.88 18.88 0 0 1  1038.13 132.13 L 1019.25 113.25 A 18.88 18.88 0 0 0 1038.13 132.13" fill="#1aa7d4"/><g transform="translate(1038.13,113.25) scale(0.944) rotate(0)"><path d="M5 0H10L5 5L0 10V5L5 0Z" fill="#99d8ec"/><path d="M20 15V20H15L20 15Z" fill="#99d8ec"/><path d="M20 5V10L15 15L10 20H5L20 5Z" fill="#99d8ec"/><path d="M15 0H20L5 15.0002L0 20.0002V15.0002L15 0Z" fill="#99d8ec"/></g><path d="M 1019.25 151.01 A 18.88 18.88 0 0 1  1038.13 132.13 L 1019.25 151.01 A 18.88 18.88 0 0 0 1038.13 132.13" fill="#e7f6fb"/><path d="M 1038.13 151.01 A 18.88 18.88 0 0 1  1057.0100000000002 132.13 L 1038.13 151.01 A 18.88 18.88 0 0 0 1057.0100000000002 132.13" fill="#6bc6e3"/><g transform="translate(1094.75,113.25) scale(1.8875) rotate(0)"><path d="M5 0H10L5 5L0 10V5L5 0Z" fill="#17a6d3"/><path d="M20 15V20H15L20 15Z" fill="#17a6d3"/><path d="M20 5V10L15 15L10 20H5L20 5Z" fill="#17a6d3"/><path d="M15 0H20L5 15.0002L0 20.0002V15.0002L15 0Z" fill="#17a6d3"/></g><g transform="translate(1132.5,113.25) scale(1.8875) rotate(0)"><path d="M5 0H10L5 5L0 10V5L5 0Z" fill="#9ab7bc"/><path d="M20 15V20H15L20 15Z" fill="#9ab7bc"/><path d="M20 5V10L15 15L10 20H5L20 5Z" fill="#9ab7bc"/><path d="M15 0H20L5 15.0002L0 20.0002V15.0002L15 0Z" fill="#9ab7bc"/></g><path d="M 1208 113.25 A 37.75 37.75 0 0 1  1245.75 151 L 1208 113.25 A 37.75 37.75 0 0 0 1245.75 151" fill="#779fa6"/><g transform="translate(188.75,151) scale(1.8875) rotate(0)"><path d="M5 0H10L5 5L0 10V5L5 0Z" fill="#f9fbfb"/><path d="M20 15V20H15L20 15Z" fill="#f9fbfb"/><path d="M20 5V10L15 15L10 20H5L20 5Z" fill="#f9fbfb"/><path d="M15 0H20L5 15.0002L0 20.0002V15.0002L15 0Z" fill="#f9fbfb"/></g><rect x="226.5" y="151" width="37.75" height="37.75" fill="#ffffff"/><path d="M 226.5 169.88 A 18.88 18.88 0 0 1  245.38 188.76 L 226.5 169.88 A 18.88 18.88 0 0 0 245.38 188.76" fill="#07505c"/><polygon points="245.38,169.88 264.26,169.88 245.38,188.76" fill="#aadeef"/><polygon points="302,151 339.75,151 339.75,188.75" fill="#63c3e2"/><polygon points="377.5,151 377.5,188.75 339.75,188.75" fill="#0d545f"/><path d="M 377.5 188.75 A 37.75 37.75 0 0 1  415.25 151 L 377.5 188.75 A 37.75 37.75 0 0 0 415.25 151" fill="#1ea8d5"/><g transform="translate(453,151) scale(1.8875) rotate(0)"><path d="M5 0H10L5 5L0 10V5L5 0Z" fill="#08515c"/><path d="M20 15V20H15L20 15Z" fill="#08515c"/><path d="M20 5V10L15 15L10 20H5L20 5Z" fill="#08515c"/><path d="M15 0H20L5 15.0002L0 20.0002V15.0002L15 0Z" fill="#08515c"/></g><g transform="translate(490.75,151) scale(1.8875) rotate(0)"><path d="M5 0H10L5 5L0 10V5L5 0Z" fill="#659299"/><path d="M20 15V20H15L20 15Z" fill="#659299"/><path d="M20 5V10L15 15L10 20H5L20 5Z" fill="#659299"/><path d="M15 0H20L5 15.0002L0 20.0002V15.0002L15 0Z" fill="#659299"/></g><path d="M 566.25 188.75 A 37.75 37.75 0 0 1  604 151 L 566.25 188.75 A 37.75 37.75 0 0 0 604 151" fill="#3d767f"/><path d="M 604 188.75 A 37.75 37.75 0 0 1  641.75 151 L 604 188.75 A 37.75 37.75 0 0 0 641.75 151" fill="#98d7ec"/><g transform="translate(641.75,151) scale(1.8875) rotate(0)"><path d="M5 0H10L5 5L0 10V5L5 0Z" fill="#d1dfe1"/><path d="M20 15V20H15L20 15Z" fill="#d1dfe1"/><path d="M20 5V10L15 15L10 20H5L20 5Z" fill="#d1dfe1"/><path d="M15 0H20L5 15.0002L0 20.0002V15.0002L15 0Z" fill="#d1dfe1"/></g><polygon points="679.5,151 717.25,188.75 679.5,188.75" fill="#467c85"/><g transform="translate(717.25,151) scale(1.8875) rotate(0)"><path d="M5 0H10L5 5L0 10V5L5 0Z" fill="#73c9e5"/><path d="M20 15V20H15L20 15Z" fill="#73c9e5"/><path d="M20 5V10L15 15L10 20H5L20 5Z" fill="#73c9e5"/><path d="M15 0H20L5 15.0002L0 20.0002V15.0002L15 0Z" fill="#73c9e5"/></g><rect x="755" y="151" width="37.75" height="37.75" fill="#ffffff"/><path d="M 755 151 A 18.88 18.88 0 0 1  773.88 169.88 L 755 151 A 18.88 18.88 0 0 0 773.88 169.88" fill="#8badb2"/><path d="M 773.88 151 A 18.88 18.88 0 0 1  792.76 169.88 L 773.88 151 A 18.88 18.88 0 0 0 792.76 169.88" fill="#42b6db"/><path d="M 755 169.88 A 18.88 18.88 0 0 1  773.88 188.76 L 755 169.88 A 18.88 18.88 0 0 0 773.88 188.76" fill="#92d5eb"/><g transform="translate(773.88,169.88) scale(0.944) rotate(0)"><path d="M5 0H10L5 5L0 10V5L5 0Z" fill="#bfe7f3"/><path d="M20 15V20H15L20 15Z" fill="#bfe7f3"/><path d="M20 5V10L15 15L10 20H5L20 5Z" fill="#bfe7f3"/><path d="M15 0H20L5 15.0002L0 20.0002V15.0002L15 0Z" fill="#bfe7f3"/></g><rect x="792.75" y="151" width="37.75" height="37.75" fill="#ffffff"/><polygon points="811.63,151 811.63,169.88 792.75,169.88" fill="#4cbadd"/><path d="M 811.63 169.88 A 18.88 18.88 0 0 1  830.51 151 L 811.63 169.88 A 18.88 18.88 0 0 0 830.51 151" fill="#cddcde"/><path d="M 792.75 188.76 A 18.88 18.88 0 0 1  811.63 169.88 L 792.75 188.76 A 18.88 18.88 0 0 0 811.63 169.88" fill="#d9f0f8"/><g transform="translate(811.63,169.88) scale(0.944) rotate(0)"><path d="M5 0H10L5 5L0 10V5L5 0Z" fill="#86d0e8"/><path d="M20 15V20H15L20 15Z" fill="#86d0e8"/><path d="M20 5V10L15 15L10 20H5L20 5Z" fill="#86d0e8"/><path d="M15 0H20L5 15.0002L0 20.0002V15.0002L15 0Z" fill="#86d0e8"/></g><rect x="830.5" y="151" width="37.75" height="37.75" fill="#ffffff"/><polygon points="830.5,151 849.38,151 849.38,169.88" fill="#024d59"/><path d="M 849.38 151 A 18.88 18.88 0 0 1  868.26 169.88 L 849.38 151 A 18.88 18.88 0 0 0 868.26 169.88" fill="#7dcde7"/><path d="M 830.5 188.76 A 18.88 18.88 0 0 1  849.38 169.88 L 830.5 188.76 A 18.88 18.88 0 0 0 849.38 169.88" fill="#15a5d3"/><g transform="translate(849.38,169.88) scale(0.944) rotate(0)"><path d="M5 0H10L5 5L0 10V5L5 0Z" fill="#c3d4d7"/><path d="M20 15V20H15L20 15Z" fill="#c3d4d7"/><path d="M20 5V10L15 15L10 20H5L20 5Z" fill="#c3d4d7"/><path d="M15 0H20L5 15.0002L0 20.0002V15.0002L15 0Z" fill="#c3d4d7"/></g><path d="M 868.25 188.75 A 37.75 37.75 0 0 1  906 151 L 868.25 188.75 A 37.75 37.75 0 0 0 906 151" fill="#9bd9ec"/><rect x="906" y="151" width="37.75" height="37.75" fill="#ffffff"/><polygon points="924.88,151 924.88,169.88 906,169.88" fill="#e3ebec"/><g transform="translate(924.88,151) scale(0.944) rotate(0)"><path d="M5 0H10L5 5L0 10V5L5 0Z" fill="#e8eff0"/><path d="M20 15V20H15L20 15Z" fill="#e8eff0"/><path d="M20 5V10L15 15L10 20H5L20 5Z" fill="#e8eff0"/><path d="M15 0H20L5 15.0002L0 20.0002V15.0002L15 0Z" fill="#e8eff0"/></g><g transform="translate(924.88,169.88) scale(0.944) rotate(0)"><path d="M5 0H10L5 5L0 10V5L5 0Z" fill="#6dc7e3"/><path d="M20 15V20H15L20 15Z" fill="#6dc7e3"/><path d="M20 5V10L15 15L10 20H5L20 5Z" fill="#6dc7e3"/><path d="M15 0H20L5 15.0002L0 20.0002V15.0002L15 0Z" fill="#6dc7e3"/></g><path d="M 943.75 188.75 A 37.75 37.75 0 0 1  981.5 151 L 943.75 188.75 A 37.75 37.75 0 0 0 981.5 151" fill="#aac3c7"/><rect x="981.5" y="151" width="37.75" height="37.75" fill="#ffffff"/><path d="M 981.5 169.88 A 18.88 18.88 0 0 1  1000.38 151 L 981.5 169.88 A 18.88 18.88 0 0 0 1000.38 151" fill="#059fd0"/><path d="M 981.5 188.76 A 18.88 18.88 0 0 1  1000.38 169.88 L 981.5 188.76 A 18.88 18.88 0 0 0 1000.38 169.88" fill="#22aad5"/><g transform="translate(1000.38,169.88) scale(0.944) rotate(0)"><path d="M5 0H10L5 5L0 10V5L5 0Z" fill="#41b6db"/><path d="M20 15V20H15L20 15Z" fill="#41b6db"/><path d="M20 5V10L15 15L10 20H5L20 5Z" fill="#41b6db"/><path d="M15 0H20L5 15.0002L0 20.0002V15.0002L15 0Z" fill="#41b6db"/></g><polygon points="1019.25,151 1057,151 1057,188.75" fill="#37b2d9"/><path d="M 1057 151 A 37.75 37.75 0 0 1  1094.75 188.75 L 1057 151 A 37.75 37.75 0 0 0 1094.75 188.75" fill="#09a1d1"/><g transform="translate(1094.75,151) scale(1.8875) rotate(0)"><path d="M5 0H10L5 5L0 10V5L5 0Z" fill="#86aaaf"/><path d="M20 15V20H15L20 15Z" fill="#86aaaf"/><path d="M20 5V10L15 15L10 20H5L20 5Z" fill="#86aaaf"/><path d="M15 0H20L5 15.0002L0 20.0002V15.0002L15 0Z" fill="#86aaaf"/></g><g transform="translate(1208,151) scale(1.8875) rotate(0)"><path d="M5 0H10L5 5L0 10V5L5 0Z" fill="#c5e9f4"/><path d="M20 15V20H15L20 15Z" fill="#c5e9f4"/><path d="M20 5V10L15 15L10 20H5L20 5Z" fill="#c5e9f4"/><path d="M15 0H20L5 15.0002L0 20.0002V15.0002L15 0Z" fill="#c5e9f4"/></g><g transform="translate(1283.5,151) scale(1.8875) rotate(0)"><path d="M5 0H10L5 5L0 10V5L5 0Z" fill="#9fdaed"/><path d="M20 15V20H15L20 15Z" fill="#9fdaed"/><path d="M20 5V10L15 15L10 20H5L20 5Z" fill="#9fdaed"/><path d="M15 0H20L5 15.0002L0 20.0002V15.0002L15 0Z" fill="#9fdaed"/></g><g transform="translate(1321.25,151) scale(1.8875) rotate(0)"><path d="M5 0H10L5 5L0 10V5L5 0Z" fill="#cdecf6"/><path d="M20 15V20H15L20 15Z" fill="#cdecf6"/><path d="M20 5V10L15 15L10 20H5L20 5Z" fill="#cdecf6"/><path d="M15 0H20L5 15.0002L0 20.0002V15.0002L15 0Z" fill="#cdecf6"/></g><polygon points="1396.75,151 1434.5,188.75 1396.75,188.75" fill="#a2dbed"/><rect x="113.25" y="188.75" width="37.75" height="37.75" fill="#ffffff"/><path d="M 188.75 188.75 A 37.75 37.75 0 0 1  226.5 226.5 L 188.75 188.75 A 37.75 37.75 0 0 0 226.5 226.5" fill="#abc3c7"/><g transform="translate(226.5,188.75) scale(1.8875) rotate(0)"><path d="M5 0H10L5 5L0 10V5L5 0Z" fill="#bfd2d5"/><path d="M20 15V20H15L20 15Z" fill="#bfd2d5"/><path d="M20 5V10L15 15L10 20H5L20 5Z" fill="#bfd2d5"/><path d="M15 0H20L5 15.0002L0 20.0002V15.0002L15 0Z" fill="#bfd2d5"/></g><rect x="415.25" y="188.75" width="37.75" height="37.75" fill="#ffffff"/><polygon points="434.13,188.75 453.01,188.75 434.13,207.63" fill="#b1e1f0"/><g transform="translate(415.25,207.63) scale(0.944) rotate(0)"><path d="M5 0H10L5 5L0 10V5L5 0Z" fill="#d5e1e3"/><path d="M20 15V20H15L20 15Z" fill="#d5e1e3"/><path d="M20 5V10L15 15L10 20H5L20 5Z" fill="#d5e1e3"/><path d="M15 0H20L5 15.0002L0 20.0002V15.0002L15 0Z" fill="#d5e1e3"/></g><g transform="translate(434.13,207.63) scale(0.944) rotate(0)"><path d="M5 0H10L5 5L0 10V5L5 0Z" fill="#aadeef"/><path d="M20 15V20H15L20 15Z" fill="#aadeef"/><path d="M20 5V10L15 15L10 20H5L20 5Z" fill="#aadeef"/><path d="M15 0H20L5 15.0002L0 20.0002V15.0002L15 0Z" fill="#aadeef"/></g><rect x="453" y="188.75" width="37.75" height="37.75" fill="#ffffff"/><g transform="translate(453,188.75) scale(0.944) rotate(0)"><path d="M5 0H10L5 5L0 10V5L5 0Z" fill="#35b1d9"/><path d="M20 15V20H15L20 15Z" fill="#35b1d9"/><path d="M20 5V10L15 15L10 20H5L20 5Z" fill="#35b1d9"/><path d="M15 0H20L5 15.0002L0 20.0002V15.0002L15 0Z" fill="#35b1d9"/></g><path d="M 453 226.51 A 18.88 18.88 0 0 1  471.88 207.63 L 453 226.51 A 18.88 18.88 0 0 0 471.88 207.63" fill="#80cee7"/><g transform="translate(490.75,188.75) scale(1.8875) rotate(0)"><path d="M5 0H10L5 5L0 10V5L5 0Z" fill="#c4d6d8"/><path d="M20 15V20H15L20 15Z" fill="#c4d6d8"/><path d="M20 5V10L15 15L10 20H5L20 5Z" fill="#c4d6d8"/><path d="M15 0H20L5 15.0002L0 20.0002V15.0002L15 0Z" fill="#c4d6d8"/></g><path d="M 528.5 188.75 A 37.75 37.75 0 0 1  566.25 226.5 L 528.5 188.75 A 37.75 37.75 0 0 0 566.25 226.5" fill="#5d8d94"/><rect x="566.25" y="188.75" width="37.75" height="37.75" fill="#ffffff"/><g transform="translate(566.25,188.75) scale(0.944) rotate(0)"><path d="M5 0H10L5 5L0 10V5L5 0Z" fill="#6bc6e3"/><path d="M20 15V20H15L20 15Z" fill="#6bc6e3"/><path d="M20 5V10L15 15L10 20H5L20 5Z" fill="#6bc6e3"/><path d="M15 0H20L5 15.0002L0 20.0002V15.0002L15 0Z" fill="#6bc6e3"/></g><g transform="translate(585.13,188.75) scale(0.944) rotate(0)"><path d="M5 0H10L5 5L0 10V5L5 0Z" fill="#6e999f"/><path d="M20 15V20H15L20 15Z" fill="#6e999f"/><path d="M20 5V10L15 15L10 20H5L20 5Z" fill="#6e999f"/><path d="M15 0H20L5 15.0002L0 20.0002V15.0002L15 0Z" fill="#6e999f"/></g><polygon points="585.13,207.63 585.13,226.51 566.25,226.51" fill="#3c767f"/><path d="M 585.13 207.63 A 18.88 18.88 0 0 1  604.01 226.51 L 585.13 207.63 A 18.88 18.88 0 0 0 604.01 226.51" fill="#07505b"/><g transform="translate(604,188.75) scale(1.8875) rotate(0)"><path d="M5 0H10L5 5L0 10V5L5 0Z" fill="#2e6b75"/><path d="M20 15V20H15L20 15Z" fill="#2e6b75"/><path d="M20 5V10L15 15L10 20H5L20 5Z" fill="#2e6b75"/><path d="M15 0H20L5 15.0002L0 20.0002V15.0002L15 0Z" fill="#2e6b75"/></g><rect x="641.75" y="188.75" width="37.75" height="37.75" fill="#ffffff"/><path d="M 641.75 207.63 A 18.88 18.88 0 0 1  660.63 188.75 L 641.75 207.63 A 18.88 18.88 0 0 0 660.63 188.75" fill="#21626d"/><polygon points="679.51,188.75 679.51,207.63 660.63,207.63" fill="#2daed7"/><polygon points="641.75,207.63 660.63,207.63 641.75,226.51" fill="#7ca3a9"/><g transform="translate(660.63,207.63) scale(0.944) rotate(0)"><path d="M5 0H10L5 5L0 10V5L5 0Z" fill="#6a969d"/><path d="M20 15V20H15L20 15Z" fill="#6a969d"/><path d="M20 5V10L15 15L10 20H5L20 5Z" fill="#6a969d"/><path d="M15 0H20L5 15.0002L0 20.0002V15.0002L15 0Z" fill="#6a969d"/></g><polygon points="717.25,188.75 717.25,226.5 679.5,226.5" fill="#76cbe5"/><path d="M 717.25 188.75 A 37.75 37.75 0 0 1  755 226.5 L 717.25 188.75 A 37.75 37.75 0 0 0 755 226.5" fill="#2baed7"/><g transform="translate(755,188.75) scale(1.8875) rotate(0)"><path d="M5 0H10L5 5L0 10V5L5 0Z" fill="#eff3f4"/><path d="M20 15V20H15L20 15Z" fill="#eff3f4"/><path d="M20 5V10L15 15L10 20H5L20 5Z" fill="#eff3f4"/><path d="M15 0H20L5 15.0002L0 20.0002V15.0002L15 0Z" fill="#eff3f4"/></g><path d="M 792.75 188.75 A 37.75 37.75 0 0 1  830.5 226.5 L 792.75 188.75 A 37.75 37.75 0 0 0 830.5 226.5" fill="#c1e7f3"/><polygon points="830.5,188.75 868.25,226.5 830.5,226.5" fill="#56bedf"/><g transform="translate(868.25,188.75) scale(1.8875) rotate(0)"><path d="M5 0H10L5 5L0 10V5L5 0Z" fill="#55878f"/><path d="M20 15V20H15L20 15Z" fill="#55878f"/><path d="M20 5V10L15 15L10 20H5L20 5Z" fill="#55878f"/><path d="M15 0H20L5 15.0002L0 20.0002V15.0002L15 0Z" fill="#55878f"/></g><rect x="906" y="188.75" width="37.75" height="37.75" fill="#ffffff"/><path d="M 906 188.75 A 18.88 18.88 0 0 1  924.88 207.63 L 906 188.75 A 18.88 18.88 0 0 0 924.88 207.63" fill="#9bb8bd"/><path d="M 924.88 207.63 A 18.88 18.88 0 0 1  943.76 188.75 L 924.88 207.63 A 18.88 18.88 0 0 0 943.76 188.75" fill="#7ecee7"/><path d="M 906 207.63 A 18.88 18.88 0 0 1  924.88 226.51 L 906 207.63 A 18.88 18.88 0 0 0 924.88 226.51" fill="#83cfe8"/><g transform="translate(924.88,207.63) scale(0.944) rotate(0)"><path d="M5 0H10L5 5L0 10V5L5 0Z" fill="#59bfe0"/><path d="M20 15V20H15L20 15Z" fill="#59bfe0"/><path d="M20 5V10L15 15L10 20H5L20 5Z" fill="#59bfe0"/><path d="M15 0H20L5 15.0002L0 20.0002V15.0002L15 0Z" fill="#59bfe0"/></g><rect x="943.75" y="188.75" width="37.75" height="37.75" fill="#ffffff"/><polygon points="943.75,188.75 962.63,188.75 962.63,207.63" fill="#7fa5ab"/><g transform="translate(962.63,188.75) scale(0.944) rotate(0)"><path d="M5 0H10L5 5L0 10V5L5 0Z" fill="#6ac6e3"/><path d="M20 15V20H15L20 15Z" fill="#6ac6e3"/><path d="M20 5V10L15 15L10 20H5L20 5Z" fill="#6ac6e3"/><path d="M15 0H20L5 15.0002L0 20.0002V15.0002L15 0Z" fill="#6ac6e3"/></g><path d="M 943.75 226.51 A 18.88 18.88 0 0 1  962.63 207.63 L 943.75 226.51 A 18.88 18.88 0 0 0 962.63 207.63" fill="#51bcde"/><path d="M 962.63 226.51 A 18.88 18.88 0 0 1  981.51 207.63 L 962.63 226.51 A 18.88 18.88 0 0 0 981.51 207.63" fill="#e5f5fa"/><rect x="981.5" y="188.75" width="37.75" height="37.75" fill="#ffffff"/><path d="M 981.5 188.75 A 18.88 18.88 0 0 1  1000.38 207.63 L 981.5 188.75 A 18.88 18.88 0 0 0 1000.38 207.63" fill="#e8eff0"/><path d="M 1000.38 207.63 A 18.88 18.88 0 0 1  1019.26 188.75 L 1000.38 207.63 A 18.88 18.88 0 0 0 1019.26 188.75" fill="#b8cdd0"/><g transform="translate(981.5,207.63) scale(0.944) rotate(0)"><path d="M5 0H10L5 5L0 10V5L5 0Z" fill="#77cbe5"/><path d="M20 15V20H15L20 15Z" fill="#77cbe5"/><path d="M20 5V10L15 15L10 20H5L20 5Z" fill="#77cbe5"/><path d="M15 0H20L5 15.0002L0 20.0002V15.0002L15 0Z" fill="#77cbe5"/></g><polygon points="1000.38,207.63 1019.26,207.63 1019.26,226.51" fill="#e0e9ea"/><polygon points="1094.75,188.75 1094.75,226.5 1057,226.5" fill="#ccdbde"/><g transform="translate(1094.75,188.75) scale(1.8875) rotate(0)"><path d="M5 0H10L5 5L0 10V5L5 0Z" fill="#f8fcfe"/><path d="M20 15V20H15L20 15Z" fill="#f8fcfe"/><path d="M20 5V10L15 15L10 20H5L20 5Z" fill="#f8fcfe"/><path d="M15 0H20L5 15.0002L0 20.0002V15.0002L15 0Z" fill="#f8fcfe"/></g><g transform="translate(1208,188.75) scale(1.8875) rotate(0)"><path d="M5 0H10L5 5L0 10V5L5 0Z" fill="#014b57"/><path d="M20 15V20H15L20 15Z" fill="#014b57"/><path d="M20 5V10L15 15L10 20H5L20 5Z" fill="#014b57"/><path d="M15 0H20L5 15.0002L0 20.0002V15.0002L15 0Z" fill="#014b57"/></g><g transform="translate(1245.75,188.75) scale(1.8875) rotate(0)"><path d="M5 0H10L5 5L0 10V5L5 0Z" fill="#f8fafa"/><path d="M20 15V20H15L20 15Z" fill="#f8fafa"/><path d="M20 5V10L15 15L10 20H5L20 5Z" fill="#f8fafa"/><path d="M15 0H20L5 15.0002L0 20.0002V15.0002L15 0Z" fill="#f8fafa"/></g><g transform="translate(1283.5,188.75) scale(1.8875) rotate(0)"><path d="M5 0H10L5 5L0 10V5L5 0Z" fill="#45b8dc"/><path d="M20 15V20H15L20 15Z" fill="#45b8dc"/><path d="M20 5V10L15 15L10 20H5L20 5Z" fill="#45b8dc"/><path d="M15 0H20L5 15.0002L0 20.0002V15.0002L15 0Z" fill="#45b8dc"/></g><rect x="1396.75" y="188.75" width="37.75" height="37.75" fill="#ffffff"/><polygon points="1396.75,188.75 1415.63,188.75 1415.63,207.63" fill="#eff9fc"/><polygon points="1434.5,188.75 1472.25,188.75 1472.25,226.5" fill="#b2c9cc"/><polygon points="75.5,226.5 113.25,226.5 75.5,264.25" fill="#266670"/><g transform="translate(188.75,226.5) scale(1.8875) rotate(0)"><path d="M5 0H10L5 5L0 10V5L5 0Z" fill="#a5dcee"/><path d="M20 15V20H15L20 15Z" fill="#a5dcee"/><path d="M20 5V10L15 15L10 20H5L20 5Z" fill="#a5dcee"/><path d="M15 0H20L5 15.0002L0 20.0002V15.0002L15 0Z" fill="#a5dcee"/></g><rect x="339.75" y="226.5" width="37.75" height="37.75" fill="#ffffff"/><g transform="translate(339.75,226.5) scale(0.944) rotate(0)"><path d="M5 0H10L5 5L0 10V5L5 0Z" fill="#87aab0"/><path d="M20 15V20H15L20 15Z" fill="#87aab0"/><path d="M20 5V10L15 15L10 20H5L20 5Z" fill="#87aab0"/><path d="M15 0H20L5 15.0002L0 20.0002V15.0002L15 0Z" fill="#87aab0"/></g><path d="M 339.75 264.26 A 18.88 18.88 0 0 1  358.63 245.38 L 339.75 264.26 A 18.88 18.88 0 0 0 358.63 245.38" fill="#4a7f88"/><polygon points="358.63,245.38 377.51,245.38 358.63,264.26" fill="#f3fafd"/><path d="M 377.5 264.25 A 37.75 37.75 0 0 1  415.25 226.5 L 377.5 264.25 A 37.75 37.75 0 0 0 415.25 226.5" fill="#7ca3a9"/><path d="M 490.75 226.5 A 37.75 37.75 0 0 1  528.5 264.25 L 490.75 226.5 A 37.75 37.75 0 0 0 528.5 264.25" fill="#adc5c9"/><g transform="translate(566.25,226.5) scale(1.8875) rotate(0)"><path d="M5 0H10L5 5L0 10V5L5 0Z" fill="#ccebf5"/><path d="M20 15V20H15L20 15Z" fill="#ccebf5"/><path d="M20 5V10L15 15L10 20H5L20 5Z" fill="#ccebf5"/><path d="M15 0H20L5 15.0002L0 20.0002V15.0002L15 0Z" fill="#ccebf5"/></g><path d="M 641.75 226.5 A 37.75 37.75 0 0 1  679.5 264.25 L 641.75 226.5 A 37.75 37.75 0 0 0 679.5 264.25" fill="#cddbde"/><path d="M 679.5 264.25 A 37.75 37.75 0 0 1  717.25 226.5 L 679.5 264.25 A 37.75 37.75 0 0 0 717.25 226.5" fill="#639198"/><g transform="translate(717.25,226.5) scale(1.8875) rotate(0)"><path d="M5 0H10L5 5L0 10V5L5 0Z" fill="#73c9e5"/><path d="M20 15V20H15L20 15Z" fill="#73c9e5"/><path d="M20 5V10L15 15L10 20H5L20 5Z" fill="#73c9e5"/><path d="M15 0H20L5 15.0002L0 20.0002V15.0002L15 0Z" fill="#73c9e5"/></g><rect x="755" y="226.5" width="37.75" height="37.75" fill="#ffffff"/><path d="M 755 226.5 A 18.88 18.88 0 0 1  773.88 245.38 L 755 226.5 A 18.88 18.88 0 0 0 773.88 245.38" fill="#407881"/><g transform="translate(773.88,226.5) scale(0.944) rotate(0)"><path d="M5 0H10L5 5L0 10V5L5 0Z" fill="#a4bfc3"/><path d="M20 15V20H15L20 15Z" fill="#a4bfc3"/><path d="M20 5V10L15 15L10 20H5L20 5Z" fill="#a4bfc3"/><path d="M15 0H20L5 15.0002L0 20.0002V15.0002L15 0Z" fill="#a4bfc3"/></g><polygon points="755,245.38 773.88,245.38 755,264.26" fill="#1a5e68"/><g transform="translate(773.88,245.38) scale(0.944) rotate(0)"><path d="M5 0H10L5 5L0 10V5L5 0Z" fill="#64c3e2"/><path d="M20 15V20H15L20 15Z" fill="#64c3e2"/><path d="M20 5V10L15 15L10 20H5L20 5Z" fill="#64c3e2"/><path d="M15 0H20L5 15.0002L0 20.0002V15.0002L15 0Z" fill="#64c3e2"/></g><polygon points="792.75,226.5 830.5,264.25 792.75,264.25" fill="#069fd0"/><polygon points="830.5,226.5 868.25,226.5 868.25,264.25" fill="#c1e7f3"/><g transform="translate(868.25,226.5) scale(1.8875) rotate(0)"><path d="M5 0H10L5 5L0 10V5L5 0Z" fill="#11a4d2"/><path d="M20 15V20H15L20 15Z" fill="#11a4d2"/><path d="M20 5V10L15 15L10 20H5L20 5Z" fill="#11a4d2"/><path d="M15 0H20L5 15.0002L0 20.0002V15.0002L15 0Z" fill="#11a4d2"/></g><rect x="906" y="226.5" width="37.75" height="37.75" fill="#ffffff"/><polygon points="906,226.5 924.88,226.5 924.88,245.38" fill="#fafdfe"/><polygon points="943.76,226.5 943.76,245.38 924.88,245.38" fill="#23646e"/><g transform="translate(924.88,245.38) scale(0.944) rotate(0)"><path d="M5 0H10L5 5L0 10V5L5 0Z" fill="#427a83"/><path d="M20 15V20H15L20 15Z" fill="#427a83"/><path d="M20 5V10L15 15L10 20H5L20 5Z" fill="#427a83"/><path d="M15 0H20L5 15.0002L0 20.0002V15.0002L15 0Z" fill="#427a83"/></g><path d="M 943.75 226.5 A 37.75 37.75 0 0 1  981.5 264.25 L 943.75 226.5 A 37.75 37.75 0 0 0 981.5 264.25" fill="#b0e1f0"/><rect x="981.5" y="226.5" width="37.75" height="37.75" fill="#ffffff"/><path d="M 981.5 245.38 A 18.88 18.88 0 0 1  1000.38 226.5 L 981.5 245.38 A 18.88 18.88 0 0 0 1000.38 226.5" fill="#65c4e2"/><path d="M 1000.38 245.38 A 18.88 18.88 0 0 1  1019.26 226.5 L 1000.38 245.38 A 18.88 18.88 0 0 0 1019.26 226.5" fill="#f7fcfe"/><path d="M 981.5 264.26 A 18.88 18.88 0 0 1  1000.38 245.38 L 981.5 264.26 A 18.88 18.88 0 0 0 1000.38 245.38" fill="#054e5a"/><g transform="translate(1019.25,226.5) scale(1.8875) rotate(0)"><path d="M5 0H10L5 5L0 10V5L5 0Z" fill="#08a0d0"/><path d="M20 15V20H15L20 15Z" fill="#08a0d0"/><path d="M20 5V10L15 15L10 20H5L20 5Z" fill="#08a0d0"/><path d="M15 0H20L5 15.0002L0 20.0002V15.0002L15 0Z" fill="#08a0d0"/></g><rect x="1057" y="226.5" width="37.75" height="37.75" fill="#ffffff"/><path d="M 1057 226.5 A 18.88 18.88 0 0 1  1075.88 245.38 L 1057 226.5 A 18.88 18.88 0 0 0 1075.88 245.38" fill="#cadadc"/><path d="M 1075.88 226.5 A 18.88 18.88 0 0 1  1094.7600000000002 245.38 L 1075.88 226.5 A 18.88 18.88 0 0 0 1094.7600000000002 245.38" fill="#a5dcee"/><path d="M 1057 264.26 A 18.88 18.88 0 0 1  1075.88 245.38 L 1057 264.26 A 18.88 18.88 0 0 0 1075.88 245.38" fill="#fafbfc"/><g transform="translate(1075.88,245.38) scale(0.944) rotate(0)"><path d="M5 0H10L5 5L0 10V5L5 0Z" fill="#7dcde7"/><path d="M20 15V20H15L20 15Z" fill="#7dcde7"/><path d="M20 5V10L15 15L10 20H5L20 5Z" fill="#7dcde7"/><path d="M15 0H20L5 15.0002L0 20.0002V15.0002L15 0Z" fill="#7dcde7"/></g><g transform="translate(1094.75,226.5) scale(1.8875) rotate(0)"><path d="M5 0H10L5 5L0 10V5L5 0Z" fill="#336f79"/><path d="M20 15V20H15L20 15Z" fill="#336f79"/><path d="M20 5V10L15 15L10 20H5L20 5Z" fill="#336f79"/><path d="M15 0H20L5 15.0002L0 20.0002V15.0002L15 0Z" fill="#336f79"/></g><polygon points="1132.5,226.5 1170.25,226.5 1132.5,264.25" fill="#45b8dc"/><g transform="translate(1170.25,226.5) scale(1.8875) rotate(0)"><path d="M5 0H10L5 5L0 10V5L5 0Z" fill="#195d68"/><path d="M20 15V20H15L20 15Z" fill="#195d68"/><path d="M20 5V10L15 15L10 20H5L20 5Z" fill="#195d68"/><path d="M15 0H20L5 15.0002L0 20.0002V15.0002L15 0Z" fill="#195d68"/></g><polygon points="1321.25,226.5 1359,264.25 1321.25,264.25" fill="#07505c"/><rect x="528.5" y="264.25" width="37.75" height="37.75" fill="#ffffff"/><path d="M 528.5 264.25 A 18.88 18.88 0 0 1  547.38 283.13 L 528.5 264.25 A 18.88 18.88 0 0 0 547.38 283.13" fill="#21636d"/><g transform="translate(528.5,283.13) scale(0.944) rotate(0)"><path d="M5 0H10L5 5L0 10V5L5 0Z" fill="#39737c"/><path d="M20 15V20H15L20 15Z" fill="#39737c"/><path d="M20 5V10L15 15L10 20H5L20 5Z" fill="#39737c"/><path d="M15 0H20L5 15.0002L0 20.0002V15.0002L15 0Z" fill="#39737c"/></g><g transform="translate(547.38,283.13) scale(0.944) rotate(0)"><path d="M5 0H10L5 5L0 10V5L5 0Z" fill="#55bedf"/><path d="M20 15V20H15L20 15Z" fill="#55bedf"/><path d="M20 5V10L15 15L10 20H5L20 5Z" fill="#55bedf"/><path d="M15 0H20L5 15.0002L0 20.0002V15.0002L15 0Z" fill="#55bedf"/></g><polygon points="566.25,264.25 604,302 566.25,302" fill="#a8deef"/><polygon points="604,264.25 641.75,302 604,302" fill="#4abadd"/><rect x="679.5" y="264.25" width="37.75" height="37.75" fill="#ffffff"/><polygon points="698.38,264.25 717.26,264.25 717.26,283.13" fill="#f6f9f9"/><polygon points="698.38,283.13 698.38,302.01 679.5,302.01" fill="#f6fcfd"/><polygon points="717.25,264.25 755,302 717.25,302" fill="#029ecf"/><polygon points="755,264.25 792.75,264.25 755,302" fill="#0ca2d1"/><polygon points="792.75,264.25 830.5,302 792.75,302" fill="#069fd0"/><rect x="868.25" y="264.25" width="37.75" height="37.75" fill="#ffffff"/><g transform="translate(868.25,264.25) scale(0.944) rotate(0)"><path d="M5 0H10L5 5L0 10V5L5 0Z" fill="#59bfe0"/><path d="M20 15V20H15L20 15Z" fill="#59bfe0"/><path d="M20 5V10L15 15L10 20H5L20 5Z" fill="#59bfe0"/><path d="M15 0H20L5 15.0002L0 20.0002V15.0002L15 0Z" fill="#59bfe0"/></g><polygon points="906.01,264.25 906.01,283.13 887.13,283.13" fill="#eaf0f1"/><path d="M 868.25 302.01 A 18.88 18.88 0 0 1  887.13 283.13 L 868.25 302.01 A 18.88 18.88 0 0 0 887.13 283.13" fill="#abdfef"/><polygon points="906.01,283.13 906.01,302.01 887.13,302.01" fill="#b1e1f0"/><g transform="translate(981.5,264.25) scale(1.8875) rotate(0)"><path d="M5 0H10L5 5L0 10V5L5 0Z" fill="#6b969d"/><path d="M20 15V20H15L20 15Z" fill="#6b969d"/><path d="M20 5V10L15 15L10 20H5L20 5Z" fill="#6b969d"/><path d="M15 0H20L5 15.0002L0 20.0002V15.0002L15 0Z" fill="#6b969d"/></g><g transform="translate(1019.25,264.25) scale(1.8875) rotate(0)"><path d="M5 0H10L5 5L0 10V5L5 0Z" fill="#94b3b8"/><path d="M20 15V20H15L20 15Z" fill="#94b3b8"/><path d="M20 5V10L15 15L10 20H5L20 5Z" fill="#94b3b8"/><path d="M15 0H20L5 15.0002L0 20.0002V15.0002L15 0Z" fill="#94b3b8"/></g><rect x="1057" y="264.25" width="37.75" height="37.75" fill="#ffffff"/><polygon points="1057,264.25 1075.88,264.25 1057,283.13" fill="#66939a"/><polygon points="1094.7600000000002,264.25 1094.7600000000002,283.13 1075.88,283.13" fill="#739ca3"/><path d="M 1094.75 302 A 37.75 37.75 0 0 1  1132.5 264.25 L 1094.75 302 A 37.75 37.75 0 0 0 1132.5 264.25" fill="#27acd6"/><rect x="1245.75" y="264.25" width="37.75" height="37.75" fill="#ffffff"/><path d="M 1245.75 283.13 A 18.88 18.88 0 0 1  1264.63 264.25 L 1245.75 283.13 A 18.88 18.88 0 0 0 1264.63 264.25" fill="#56bedf"/><path d="M 1321.25 264.25 A 37.75 37.75 0 0 1  1359 302 L 1321.25 264.25 A 37.75 37.75 0 0 0 1359 302" fill="#639198"/><g transform="translate(264.25,302) scale(1.8875) rotate(0)"><path d="M5 0H10L5 5L0 10V5L5 0Z" fill="#9ab8bd"/><path d="M20 15V20H15L20 15Z" fill="#9ab8bd"/><path d="M20 5V10L15 15L10 20H5L20 5Z" fill="#9ab8bd"/><path d="M15 0H20L5 15.0002L0 20.0002V15.0002L15 0Z" fill="#9ab8bd"/></g><g transform="translate(453,302) scale(1.8875) rotate(0)"><path d="M5 0H10L5 5L0 10V5L5 0Z" fill="#a7c1c5"/><path d="M20 15V20H15L20 15Z" fill="#a7c1c5"/><path d="M20 5V10L15 15L10 20H5L20 5Z" fill="#a7c1c5"/><path d="M15 0H20L5 15.0002L0 20.0002V15.0002L15 0Z" fill="#a7c1c5"/></g><g transform="translate(490.75,302) scale(1.8875) rotate(0)"><path d="M5 0H10L5 5L0 10V5L5 0Z" fill="#ebf7fb"/><path d="M20 15V20H15L20 15Z" fill="#ebf7fb"/><path d="M20 5V10L15 15L10 20H5L20 5Z" fill="#ebf7fb"/><path d="M15 0H20L5 15.0002L0 20.0002V15.0002L15 0Z" fill="#ebf7fb"/></g><polygon points="566.25,302 566.25,339.75 528.5,339.75" fill="#6dc7e3"/><path d="M 717.25 302 A 37.75 37.75 0 0 1  755 339.75 L 717.25 302 A 37.75 37.75 0 0 0 755 339.75" fill="#009dcf"/><rect x="792.75" y="302" width="37.75" height="37.75" fill="#ffffff"/><polygon points="792.75,302 811.63,320.88 792.75,320.88" fill="#6a969d"/><polygon points="906,302 943.75,302 943.75,339.75" fill="#759da4"/><path d="M 1019.25 302 A 37.75 37.75 0 0 1  1057 339.75 L 1019.25 302 A 37.75 37.75 0 0 0 1057 339.75" fill="#c7d8da"/><polygon points="1094.75,302 1132.5,339.75 1094.75,339.75" fill="#52858d"/><polygon points="1359,302 1396.75,339.75 1359,339.75" fill="#70c8e4"/><polygon points="1472.25,302 1510,302 1510,339.75" fill="#53858d"/><polygon points="641.75,339.75 641.75,377.5 604,377.5" fill="#dbe6e8"/><rect x="679.5" y="339.75" width="37.75" height="37.75" fill="#ffffff"/></g></svg>