<?xml version="1.0" standalone="no"?><svg xmlns:xlink="http://www.w3.org/1999/xlink" xmlns="http://www.w3.org/2000/svg" viewBox="0 0 1000 2000" preserveAspectRatio="xMaxYMax slice"><g transform="scale(2.8612303290414878)"><rect x="0" y="0" width="349.5" height="699" fill="#fafafa"/><path d="M 244.65 0 A 34.95 34.95 0 0 1  279.6 34.95 L 244.65 0 A 34.95 34.95 0 0 0 279.6 34.95" fill="#4766e6"/><path d="M 314.55 34.95 A 34.95 34.95 0 0 1  349.5 69.9 L 314.55 34.95 A 34.95 34.95 0 0 0 349.5 69.9" fill="#60f193"/><path d="M 174.75 69.9 A 34.95 34.95 0 0 1  209.7 104.85000000000001 L 174.75 69.9 A 34.95 34.95 0 0 0 209.7 104.85000000000001" fill="#7df2a6"/><rect x="279.6" y="69.9" width="34.95" height="34.95" fill="#fafafa"/><path d="M 34.95 104.85 A 34.95 34.95 0 0 1  69.9 139.8 L 34.95 104.85 A 34.95 34.95 0 0 0 69.9 139.8" fill="#e5f9ec"/><rect x="139.8" y="104.85000000000001" width="34.95" height="34.95" fill="#fafafa"/><rect x="174.75" y="174.75" width="34.95" height="34.95" fill="#fafafa"/><path d="M 279.6 209.7 A 34.95 34.95 0 0 1  314.55 174.75 L 279.6 209.7 A 34.95 34.95 0 0 0 314.55 174.75" fill="#5e79e9"/><path d="M 0 244.65 A 34.95 34.95 0 0 1  34.95 279.6 L 0 244.65 A 34.95 34.95 0 0 0 34.95 279.6" fill="#baf6cf"/><path d="M 209.7 244.65 A 34.95 34.95 0 0 1  244.64999999999998 279.6 L 209.7 244.65 A 34.95 34.95 0 0 0 244.64999999999998 279.6" fill="#e4f9eb"/><rect x="34.95" y="279.6" width="34.95" height="34.95" fill="#fafafa"/><path d="M 279.6 349.5 A 34.95 34.95 0 0 1  314.55 314.55 L 279.6 349.5 A 34.95 34.95 0 0 0 314.55 314.55" fill="#f7f8fa"/><path d="M 0 384.45 A 34.95 34.95 0 0 1  34.95 349.5 L 0 384.45 A 34.95 34.95 0 0 0 34.95 349.5" fill="#4867e6"/><path d="M 314.55 349.5 A 34.95 34.95 0 0 1  349.5 384.45 L 314.55 349.5 A 34.95 34.95 0 0 0 349.5 384.45" fill="#a6b4f1"/><path d="M 279.6 384.45 A 34.95 34.95 0 0 1  314.55 419.4 L 279.6 384.45 A 34.95 34.95 0 0 0 314.55 419.4" fill="#f4faf6"/><path d="M 104.85 419.4 A 34.95 34.95 0 0 1  139.8 454.34999999999997 L 104.85 419.4 A 34.95 34.95 0 0 0 139.8 454.34999999999997" fill="#d1f8df"/><rect x="69.9" y="454.35" width="34.95" height="34.95" fill="#fafafa"/><path d="M 69.9 524.25 A 34.95 34.95 0 0 1  104.85000000000001 489.3 L 69.9 524.25 A 34.95 34.95 0 0 0 104.85000000000001 489.3" fill="#c3f7d5"/><rect x="104.85000000000001" y="489.30000000000007" width="34.95" height="34.95" fill="#fafafa"/><path d="M 104.85 506.78000000000003 A 17.48 17.48 0 0 1  122.33 489.3 L 104.85 506.78000000000003 A 17.48 17.48 0 0 0 122.33 489.3" fill="#61f193"/><path d="M 314.55 489.3 A 34.95 34.95 0 0 1  349.5 524.25 L 314.55 489.3 A 34.95 34.95 0 0 0 349.5 524.25" fill="#edeff9"/><path d="M 34.95 559.2 A 34.95 34.95 0 0 1  69.9 524.25 L 34.95 559.2 A 34.95 34.95 0 0 0 69.9 524.25" fill="#7ff3a7"/><path d="M 69.9 524.25 A 34.95 34.95 0 0 1  104.85000000000001 559.2 L 69.9 524.25 A 34.95 34.95 0 0 0 104.85000000000001 559.2" fill="#4ef086"/><path d="M 244.65 524.25 A 34.95 34.95 0 0 1  279.6 559.2 L 244.65 524.25 A 34.95 34.95 0 0 0 279.6 559.2" fill="#4665e6"/><path d="M 279.6 524.25 A 34.95 34.95 0 0 1  314.55 559.2 L 279.6 524.25 A 34.95 34.95 0 0 0 314.55 559.2" fill="#f9f9fa"/><path d="M 34.95 629.1 A 34.95 34.95 0 0 1  69.9 664.0500000000001 L 34.95 629.1 A 34.95 34.95 0 0 0 69.9 664.0500000000001" fill="#e3f9eb"/><path d="M 69.9 629.1 A 34.95 34.95 0 0 1  104.85000000000001 664.0500000000001 L 69.9 629.1 A 34.95 34.95 0 0 0 104.85000000000001 664.0500000000001" fill="#b2bff2"/><path d="M 104.85 664.05 A 34.95 34.95 0 0 1  139.8 699 L 104.85 664.05 A 34.95 34.95 0 0 0 139.8 699" fill="#7b91ec"/></g></svg>